<?xml version="1.0" encoding="iso-8859-1"?>
<!-- Generator: Adobe Illustrator 19.0.0, SVG Export Plug-In . SVG Version: 6.00 Build 0)  -->
<svg version="1.1" id="Capa_1" xmlns="http://www.w3.org/2000/svg" xmlns:xlink="http://www.w3.org/1999/xlink" x="0px" y="0px"
	 viewBox="0 0 480 480" style="enable-background:new 0 0 480 480;" xml:space="preserve">
<g>
	<g>
		<path d="M240,184c-53.019,0-96,42.981-96,96s42.981,96,96,96s96-42.981,96-96C335.943,227.004,292.996,184.057,240,184z M240,360
			c-44.183,0-80-35.817-80-80c0-44.183,35.817-80,80-80s80,35.817,80,80C319.952,324.163,284.163,359.952,240,360z"/>
	</g>
</g>
<g>
	<g>
		<path d="M240,216c-4.418,0-8,3.582-8,8s3.582,8,8,8c26.499,0.026,47.974,21.501,48,48c0,4.418,3.582,8,8,8s8-3.582,8-8
			C303.96,244.67,275.33,216.04,240,216z"/>
	</g>
</g>
<g>
	<g>
		<path d="M96,328c-13.255,0-24,10.745-24,24s10.745,24,24,24s24-10.745,24-24S109.255,328,96,328z M96,360c-4.418,0-8-3.582-8-8
			s3.582-8,8-8s8,3.582,8,8S100.418,360,96,360z"/>
	</g>
</g>
<g>
	<g>
		<path d="M456,96h-24V72h-80v24h-19.056L311.2,52.424c-1.362-2.725-4.153-4.441-7.2-4.424H176c-3.032-0.001-5.805,1.712-7.16,4.424
			L147.056,96H128V72h-16V56c0-4.418-3.582-8-8-8H72c-4.418,0-8,3.582-8,8v16H48v24H24c-13.255,0-24,10.745-24,24v288
			c0,13.255,10.745,24,24,24h432c13.255,0,24-10.745,24-24V120C480,106.745,469.255,96,456,96z M368,88h48v8h-48V88z M180.944,64
			h118.112l16,32H164.944L180.944,64z M80,64h16v8H80V64z M64,88h48v8H64V88z M464,408c0,4.418-3.582,8-8,8H24c-4.418,0-8-3.582-8-8
			v-8h179.6c28.639,10.668,60.161,10.668,88.8,0H464V408z M198.512,384c-57.456-22.911-85.461-88.062-62.55-145.518
			c22.911-57.456,88.062-85.461,145.518-62.55s85.461,88.062,62.55,145.518c-11.384,28.549-34.001,51.166-62.55,62.55H280v0.616
			c-25.768,9.792-54.232,9.792-80,0V384H198.512z M464,384H314.4c57.524-41.09,70.847-121.033,29.757-178.557
			c-41.09-57.524-121.033-70.847-178.557-29.757c-57.524,41.09-70.847,121.033-29.757,178.557
			c8.209,11.493,18.264,21.547,29.757,29.757H16V144h448V384z M464,128H16v-8c0-4.418,3.582-8,8-8h432c4.418,0,8,3.582,8,8V128z"/>
	</g>
</g>
<g>
	<g>
		<path d="M440,160h-64c-4.418,0-8,3.582-8,8v32c0,4.418,3.582,8,8,8h64c4.418,0,8-3.582,8-8v-32C448,163.582,444.418,160,440,160z
			 M432,192h-48v-16h48V192z"/>
	</g>
</g>
<g>
</g>
<g>
</g>
<g>
</g>
<g>
</g>
<g>
</g>
<g>
</g>
<g>
</g>
<g>
</g>
<g>
</g>
<g>
</g>
<g>
</g>
<g>
</g>
<g>
</g>
<g>
</g>
<g>
</g>
</svg>
