<svg id="Capa_1" enable-background="new 0 0 512 512" height="512" viewBox="0 0 512 512" width="512" xmlns="http://www.w3.org/2000/svg"><g><path d="m462.956 103.261c-5.877-24.072-26.388-42.147-50.972-45.033-4.009-29.072-28.899-51.347-58.993-51.347-18.738 0-35.89 8.583-47.039 22.989-10.754-12.542-26.692-20.431-44.121-20.431-12.751 0-24.842 4.068-34.834 11.598-10.746-13.152-27.005-21.037-44.231-21.037-29.133 0-53.221 21.95-56.634 50.178-7.126-1.016-14.021-.731-20.476.58-4.059.825-6.682 4.783-5.857 8.843.825 4.059 4.784 6.681 8.843 5.857 14.407-2.925 29.98 1.235 41.118 12.856 2.452 2.558 6.361 3.05 9.371 1.182 24.179-15.015 55.912-3.597 65.438 22.804l-75.116 33.442c-4.724 2.102-10.142 2.103-14.867 0l-61.583-27.417c.188-10.042 3.773-19.79 10.161-27.531 2.636-3.194 2.184-7.922-1.011-10.558-3.195-2.637-7.922-2.184-10.558 1.011-7.466 9.047-12.065 20.142-13.277 31.755-17.919-2.53-34.789 12.998-31.707 32.467l52.886 333.989c3.903 24.65 24.85 42.542 49.808 42.542h223.926c4.142 0 7.5-3.358 7.5-7.5s-3.358-7.5-7.5-7.5h-223.926c-17.534 0-32.251-12.57-34.993-29.888l-3.996-25.235h77.644.01.011 253.704l-3.996 25.234c-2.349 14.834-13.839 26.612-28.593 29.31-4.075.745-6.773 4.652-6.028 8.727s4.653 6.775 8.727 6.028c21.006-3.841 37.367-20.607 40.71-41.719l52.886-333.989c2.53-15.978-8.43-29.405-22.435-32.207zm-15.205 1.237c-1.735.642 2.131-.993-69.414 30.835 7.491-16.792 6.859-35.998-1.763-52.197 24.403-20.438 61.956-9.101 71.177 21.362zm-94.76-82.617c21.638 0 39.984 15.839 43.826 36.527-10.552 1.493-20.566 5.807-28.907 12.455-12.526-13.699-30.876-21.099-50.178-19.084-.798-2.825-1.808-5.557-3.005-8.184 8.036-13.475 22.388-21.714 38.264-21.714zm-29.051 44.565c35.216 0 56.559 39.171 37.45 68.779-81.009-36.028-77.296-34.502-80.512-35.744 5.168-19.35 22.833-33.035 43.062-33.035zm-167.596-2.537c-4.704-4.051-9.936-7.296-15.537-9.668 1.459-21.882 19.715-39.241 41.959-39.241 14.925 0 28.868 8.035 36.386 20.97 2.494 4.289 8.392 5.014 11.852 1.47 8.183-8.384 19.131-13.001 30.828-13.001 19.176 0 35.927 12.86 41.281 30.781-17.795 6.662-31.719 21.612-36.733 40.417-9.23-1.4-18.682-.92-27.758 1.437-11.989-32.929-50.286-48.897-82.278-33.165zm-68.403 362.968-40.757-257.385 60.401 26.891c10.165 4.526 20.92 6.971 32.002 7.282l4.819 53.296c-14.924 14.268-22.94 31.164-22.94 48.999 0 21.34 11.477 41.333 32.533 57.09l5.771 63.828h-71.829zm249.229 0h-162.338l-4.857-53.719c49.638 26.665 122.345 26.702 172.053 0zm4.672-70.915c-47.218 29.623-124.47 29.62-171.683 0-18.149-11.386-33.693-28.582-33.693-50.002 0-14.379 7.147-28.246 20.413-40.096.222-.177.434-.364.634-.564 47.952-41.986 148.964-42.038 196.976 0 .2.2.412.387.634.564 13.266 11.85 20.413 25.717 20.413 40.096-.001 21.475-15.588 38.641-33.694 50.002zm-187.274-153.192c7.518-1.122 14.841-3.253 21.881-6.387l78.48-34.939c.688-.307 1.453-.307 2.142 0l78.479 34.939c7.04 3.135 14.364 5.266 21.882 6.387l-3.882 42.929c-52.951-35.913-142.105-35.944-195.102 0zm269.493 224.107h-71.83l5.771-63.828c21.056-15.757 32.533-35.75 32.533-57.09 0-17.835-8.017-34.731-22.94-48.999l4.819-53.296c11.082-.312 21.835-2.756 32.001-7.282l60.402-26.891zm46.515-293.753-2.962 18.704-69.3 30.852c-18.119 8.068-38.684 8.005-56.662 0l-78.479-34.939c-4.544-2.023-9.8-2.023-14.343 0l-78.481 34.939c-17.81 7.93-38.409 8.127-56.662 0l-69.3-30.852-2.962-18.704c-1.648-10.412 8.878-18.485 18.504-14.199l68.554 30.52c8.602 3.829 18.467 3.829 27.068 0 76.609-34.078 43.456-19.408 81.05-36.003 13.332-5.127 28.254-4.775 41.366 1.063l78.481 34.94c8.602 3.829 18.467 3.829 27.068 0l68.554-30.52c9.633-4.287 20.153 3.791 18.506 14.199zm-193.183 164.681c-3.124-2.721-7.86-2.396-10.582.727-2.73 3.132-6.67 4.929-10.81 4.929-4.141 0-8.081-1.796-10.81-4.929-2.721-3.123-7.459-3.448-10.582-.727-3.122 2.722-3.448 7.459-.727 10.582 5.579 6.402 13.641 10.073 22.119 10.073 8.477 0 16.54-3.671 22.119-10.073 2.721-3.123 2.395-7.861-.727-10.582zm-83.841-13.489c-4.142 0-7.5 3.358-7.5 7.5v12c0 4.142 3.358 7.5 7.5 7.5s7.5-3.358 7.5-7.5v-12c0-4.142-3.358-7.5-7.5-7.5zm124.897 0c-4.142 0-7.5 3.358-7.5 7.5v12c0 4.142 3.358 7.5 7.5 7.5s7.5-3.358 7.5-7.5v-12c0-4.142-3.357-7.5-7.5-7.5z"/></g></svg>