<?xml version="1.0" encoding="iso-8859-1"?>
<!-- Generator: Adobe Illustrator 19.0.0, SVG Export Plug-In . SVG Version: 6.00 Build 0)  -->
<svg version="1.1" id="Capa_1" xmlns="http://www.w3.org/2000/svg" xmlns:xlink="http://www.w3.org/1999/xlink" x="0px" y="0px"
	 viewBox="0 0 428.55 428.55" style="enable-background:new 0 0 428.55 428.55;" xml:space="preserve">
<g>
	<g>
		<path d="M375.675,109.2c-8.4-22.4-21.6-42-37.6-58s-35.2-28.8-56.8-38c-20.4-8.4-43.2-13.2-66.8-13.2c-23.6,0-46,4.8-66.8,13.2
			c-21.2,8.8-40.8,22-56.8,38s-28.8,35.2-38,56.8c-8.4,20.4-13.2,43.2-13.2,66.8c0,8.4,0.8,17.2,2,25.6c1.2,8.4,3.2,16.8,5.6,24.8
			c14.4,48.4,72,112.4,112.4,158.4c10.8,12.4,20.8,23.2,28,32c0,0.4,0.4,0.4,0.4,0.8c6,7.2,14.4,11.2,22.8,12
			c8.4,0.8,17.6-1.6,24.8-7.2c0.4,0,0.4-0.4,0.8-0.4c0.8-0.8,1.6-1.2,2.4-2l2-2.4c7.6-9.2,17.2-20,28-32.4
			c40.8-46.4,98-110.8,112.4-157.6c2.4-8,4.4-16.4,5.6-24.8c1.2-8.4,2-16.8,2-25.6C388.875,152.4,384.075,130,375.675,109.2z
			 M371.675,197.6c-1.2,7.6-2.8,15.2-5.2,22.8c-13.2,43.6-69.2,106.8-108.8,151.6c-11.2,12.8-21.2,24-28.4,32.8c0,0,0,0.4-0.4,0.4
			c-0.4,0.4-0.8,0.8-1.2,1.2c-0.4,0.4-0.8,0.8-1.6,1.2c-4,3.2-8.8,4.4-13.2,4c-4.8-0.4-9.2-2.8-12.4-6.4c-7.6-9.2-17.2-20-28.4-32.4
			c-39.6-44.4-95.6-107.6-109.2-152.4c-2.4-7.2-4-14.8-5.2-22.8c-1.2-7.6-1.6-15.2-1.6-23.2c0-21.6,4.4-42,12-60.8
			c8-19.2,19.6-36.8,34.4-51.6c14.8-14.8,32-26.4,51.6-34.4c18.8-7.6,39.2-12,60.8-12c21.6,0,42,4.4,60.8,12
			c19.2,8,36.8,19.6,51.6,34.4c14.8,14.8,26.4,32,34.4,51.6c7.6,18.8,12,39.2,12,60.8C373.275,182.4,372.875,190.4,371.675,197.6z"
			/>
	</g>
</g>
<g>
	<g>
		<path d="M288.475,144c-4-9.6-9.6-18.4-17.2-26c-7.2-7.2-16-13.2-26-17.2c-9.6-4-19.6-6-30.4-6s-21.2,2-30.4,6
			c-10,4-18.8,10-26,17.2c-7.2,7.2-13.2,16-17.2,26c-4,9.6-6,19.6-6,30.4s2,21.2,6,30.4c4,10,10,18.8,17.2,26
			c7.2,7.2,16,13.2,26,17.2c9.6,4,19.6,6,30.4,6s21.2-2,30.4-6c10-4,18.8-10,26-17.2s13.2-16,17.2-26c4-9.6,6-19.6,6-30.4
			S292.475,153.2,288.475,144z M274.075,199.2c-3.2,7.6-8,14.8-14,20.8c-6,6-12.8,10.8-20.8,14c-7.6,3.2-15.6,4.8-24.4,4.8
			c-8.8,0-16.8-1.6-24.4-4.8c-7.6-3.2-14.8-8-20.8-14s-10.8-12.8-14-20.8c-3.2-7.6-4.8-15.6-4.8-24.4s1.6-16.8,4.8-24.4
			c3.2-7.6,8-14.8,14-20.8s12.8-10.8,20.8-14c7.6-3.2,15.6-4.8,24.4-4.8s16.8,1.6,24.4,4.8c7.6,3.2,14.8,8,20.8,14
			c6,6,10.8,12.8,14,20.8c3.2,7.6,4.8,15.6,4.8,24.4C278.875,183.2,277.275,191.6,274.075,199.2z"/>
	</g>
</g>
<g>
</g>
<g>
</g>
<g>
</g>
<g>
</g>
<g>
</g>
<g>
</g>
<g>
</g>
<g>
</g>
<g>
</g>
<g>
</g>
<g>
</g>
<g>
</g>
<g>
</g>
<g>
</g>
<g>
</g>
</svg>
