<?xml version="1.0" encoding="iso-8859-1"?>
<!-- Generator: Adobe Illustrator 19.0.0, SVG Export Plug-In . SVG Version: 6.00 Build 0)  -->
<svg version="1.1" id="Capa_1" xmlns="http://www.w3.org/2000/svg" xmlns:xlink="http://www.w3.org/1999/xlink" x="0px" y="0px"
	 viewBox="0 0 293.6 293.6" style="enable-background:new 0 0 293.6 293.6;" xml:space="preserve">
<g>
	<g>
		<path d="M284,193.2c0.8-6,2-11.6,3.2-17.6c0.8-6.8,1.6-13.6,1.6-20.4c0-18-3.2-35.2-9.6-51.2c-5.6-14.8-14-28-24.4-40
			c1.6-3.2,2.8-6.8,2.4-10c-0.4-5.2-2.8-10.4-6.8-14.4c-7.2-6.4-14.8-12-22.8-16.8s-16.8-9.2-25.6-12.4c-8.8-3.2-18-6-27.2-7.6
			S156,0,146.4,0c-9.6,0-18.8,0.8-28.4,2.8c-9.6,1.6-18.4,4.4-27.2,7.6C82,13.6,73.6,18,65.2,22.8c-8,4.8-15.6,10.4-22.8,16.8
			c-4.4,4-6.8,9.2-6.8,14.4c0,3.6,0.8,6.8,2.4,10c-10,12-18.4,25.2-24.4,40c-6,16-9.6,33.2-9.6,51.2c0,6.8,0.4,13.6,1.6,20.4
			c0.8,6,2.4,11.6,4,17.6c-5.2,8.8-8.4,19.2-8.4,30.4v7.6c0,17.2,6.8,32.8,18.4,44c11.2,11.2,26.8,18.4,44,18.4h10.8
			c4,0,7.6-3.2,7.6-7.6V170c0-4-3.2-7.6-7.6-7.6h-12c-15.6,0-30,6-40.8,16c-0.4-1.6-0.8-3.2-1.2-4.8c-0.8-6-1.2-12-1.2-18.4
			c0-16.4,3.2-32,8.4-46C32.8,96.4,40,84.4,48.8,74c2,0.8,4.4,1.6,6.4,1.6C60.4,76,66,74,70.4,70.4C75.6,66,81.2,61.6,87.2,58
			c6-3.6,12-6.8,18.8-9.2c6.4-2.4,13.2-4.4,20-5.6s13.6-2,20.8-2c7.2,0,14,0.8,20.8,2c6.8,1.2,13.6,3.2,20,5.6
			c6.4,2.4,12.8,5.6,18.8,9.2s11.6,7.6,16.8,12.4c4.4,4,9.6,5.6,15.2,5.2c2.4,0,4.4-0.8,6.4-1.6c8.8,10.4,16,22,21.2,35.2
			c5.6,14.4,8.4,29.6,8.4,46c0,6-0.4,12.4-1.2,18.4c-0.4,1.6-0.8,3.2-1.2,4.8c-10.8-9.6-25.2-16-40.8-16h-12c-4,0-7.6,3.2-7.6,7.6
			v116c0,4,3.2,7.6,7.6,7.6H230c17.2,0,32.8-6.8,44-18.4c11.2-11.2,18.4-26.8,18.4-44v-7.6C292.4,212.4,289.2,202.4,284,193.2z
			 M53.2,178c2.8-0.4,5.6-0.8,8.8-0.8h4.8v101.2h-3.6c-3.6,0-6.8-0.4-10.4-1.2L53.2,178z M29.6,190.8c2.8-2.8,5.6-4.8,8.8-6.8v87.2
			c-3.2-2-6-4-8.4-6.4c-8.4-8.4-14-20.4-14-33.6v-7.6C16,210.8,21.2,199.2,29.6,190.8z M240.8,58.8c-1.2,1.2-2.8,2-4,2
			c-1.6,0-3.2-0.4-4.4-1.6c-6-5.2-12-10-18.8-14s-14-7.6-21.2-10.4S177.6,30,170,28.4c-8-1.2-15.6-2-23.6-2s-15.6,0.8-23.2,2
			c-7.6,1.6-15.2,3.6-22.4,6.4c-7.2,2.8-14.4,6.4-21.2,10.4s-12.8,8.8-18.8,14c-1.2,1.2-2.8,1.6-4.4,1.6c-1.6,0-3.2-0.8-4.4-2
			c-1.2-1.2-1.6-2.8-1.6-4.4c0-1.6,0.8-3.2,2-4.4c6.4-5.6,13.2-10.8,20.8-15.2c7.2-4.4,15.2-8.4,22.8-11.2c8-3.2,16.4-5.6,24.8-6.8
			c8.4-1.6,16.8-2.4,25.6-2.4s17.2,0.8,25.6,2.4c8.4,1.6,16.8,4,24.8,6.8c8,3.2,15.6,6.8,22.8,11.2c7.2,4.4,14.4,9.6,20.8,15.2
			c1.2,1.2,2,2.8,2,4.4S242,57.6,240.8,58.8z M239.2,277.2c-3.2,0.8-6.4,1.2-10,1.2H226V177.2h4.4c3.2,0,6,0.4,9.2,0.8L239.2,277.2z
			 M276.8,231.2c0,13.2-5.2,24.8-14,33.6c-2.4,2.4-5.6,4.8-8.8,6.8l0.4-87.2c3.2,2,6,4,8.8,6.8c8.4,8.4,13.6,20,13.6,32.8V231.2z"/>
	</g>
</g>
<g>
</g>
<g>
</g>
<g>
</g>
<g>
</g>
<g>
</g>
<g>
</g>
<g>
</g>
<g>
</g>
<g>
</g>
<g>
</g>
<g>
</g>
<g>
</g>
<g>
</g>
<g>
</g>
<g>
</g>
</svg>
